<svg width="565" height="242" viewBox="0 0 565 242" fill="none" xmlns="http://www.w3.org/2000/svg">
<path d="M270.312 110.748C260.752 110.748 256.84 109.875 254.124 107.147C252.115 105.129 251.3 102.074 251.3 97.7106V96.6196H260.643V97.656C260.643 99.4561 260.915 100.602 261.621 101.311C262.979 102.674 265.369 102.893 270.149 102.893C275.147 102.893 277.7 102.565 278.949 101.311C279.601 100.656 279.819 99.4561 279.819 98.147C279.819 96.456 279.601 95.3105 278.949 94.6559C277.483 93.1285 274.875 93.1831 266.999 92.7467C260.154 92.3649 256.406 91.383 254.179 89.0374C252.495 87.2919 251.626 84.7281 251.626 80.1461C251.626 76.2732 252.332 73.1639 254.396 71.1457C257.275 68.3092 262.11 67.3273 269.715 67.3273C277.972 67.3273 282.698 68.1455 285.359 70.8729C287.369 72.8912 287.912 76.0004 287.912 80.2006V80.9098H278.678V80.1461C278.678 78.6733 278.46 77.3641 277.754 76.655C276.559 75.455 274.115 75.1277 269.769 75.1277C265.369 75.1277 262.979 75.455 261.784 76.655C261.186 77.255 260.969 78.2915 260.969 79.7097C260.969 81.3461 261.186 82.328 261.784 82.928C263.142 84.2917 265.586 84.2917 272.159 84.7281C279.493 85.2191 284.327 85.6554 286.826 88.2738C288.564 90.0738 289.27 93.1831 289.27 97.7651C289.27 102.02 288.293 104.856 286.446 106.711C283.512 109.657 278.569 110.748 270.312 110.748Z" fill="#0f1117"/>
<path d="M295.636 110.257V67.8182H315.844C328.175 67.8182 332.575 71.4729 332.575 82.8735C332.575 94.3286 328.175 97.9833 315.844 97.9833H305.088V110.257H295.636ZM305.088 90.0193H315.844C321.439 90.0193 323.123 88.601 323.123 82.8735C323.123 77.2005 321.439 75.7822 315.844 75.7822H305.088V90.0193Z" fill="#0f1117"/>
<path d="M331.302 110.257L347.598 67.8182H360.581L376.878 110.257H367.045L364.003 101.911H344.23L341.134 110.257H331.302ZM347.001 94.274H361.233L354.226 75.0186H354.117L347.001 94.274Z" fill="#0f1117"/>
<path d="M399.243 111.075C382.729 111.075 378.709 106.22 378.709 89.0374C378.709 71.8548 382.729 67 399.243 67C412.334 67 418.309 70.4365 418.309 82.1098V83.3644H409.02V82.6553C409.02 76.8732 406.956 75.1277 399.243 75.1277C389.682 75.1277 388.378 76.4914 388.378 89.0374C388.378 101.583 389.682 102.947 399.243 102.947C407.173 102.947 409.075 101.256 409.075 94.8195V94.1104H418.309V95.4196C418.309 106.875 413.638 111.075 399.243 111.075Z" fill="#0f1117"/>
<path d="M424.945 110.257V67.8182H457.538V75.7822H434.397V84.8372H456.125V92.5285H434.397V102.293H457.918V110.257H424.945Z" fill="#0f1117"/>
<path d="M252.495 172.269V129.831H266.944L279.33 161.25H279.438L291.226 129.831H305.621V172.269H296.495L296.604 138.504H296.495L283.838 172.269H274.712L261.458 138.504H261.349L261.458 172.269H252.495Z" fill="#0f1117"/>
<path d="M313.454 172.269V129.831H346.047V137.795H322.906V146.85H344.634V154.541H322.906V164.305H346.427V172.269H313.454Z" fill="#0f1117"/>
<path d="M353.272 172.269V129.831H374.023C386.3 129.831 390.591 133.376 390.591 142.104C390.591 147.995 388.69 150.995 384.127 152.523V152.796C388.907 153.45 390.7 156.068 390.7 162.341V172.269H381.248V164.305C381.248 158.305 379.781 157.214 373.262 157.214H362.724V172.269H353.272ZM362.724 149.304H373.262C379.292 149.304 381.139 147.777 381.139 143.195C381.139 139.049 379.346 137.795 373.099 137.795H362.724V149.304Z" fill="#0f1117"/>
<path d="M397.845 172.269V129.831H407.352V172.269H397.845Z" fill="#0f1117"/>
<path d="M415.148 172.269V129.831H433.671C449.805 129.831 454.096 134.74 454.096 151.05C454.096 167.36 449.805 172.269 433.671 172.269H415.148ZM424.654 164.142H433.671C442.471 164.142 444.427 162.614 444.427 151.05C444.427 139.486 442.471 137.958 433.671 137.958H424.654V164.142Z" fill="#0f1117"/>
<path d="M460.867 172.269V129.831H470.373V172.269H460.867Z" fill="#0f1117"/>
<path d="M474.475 172.269L490.772 129.831H503.755L520.051 172.269H510.219L507.177 163.923H487.404L484.308 172.269H474.475ZM490.174 156.287H504.407L497.399 137.031H497.29L490.174 156.287Z" fill="#0f1117"/>
<path d="M524.175 172.269V129.831H537.755L555.627 163.378H555.736V129.831H564.59V172.269H551.173L532.975 138.558H532.866V172.269H524.175Z" fill="#0f1117"/>
<path d="M117.889 142.785C130.581 142.785 140.871 132.552 140.871 119.928C140.871 107.304 130.581 97.0703 117.889 97.0703C105.196 97.0703 94.9063 107.304 94.9063 119.928C94.9063 132.552 105.196 142.785 117.889 142.785Z" fill="#FFB321"/>
<path d="M158.45 160.269C126.696 191.85 88.7309 198.027 64.0294 173.495C39.3278 148.962 45.5734 111.204 77.3275 79.5871C109.082 47.9705 147.046 41.8287 171.748 66.3612C196.449 90.8937 190.239 128.687 158.45 160.269ZM177.327 60.8126C142.204 25.8808 97.9239 21.2395 58.275 60.6381C18.6262 100.037 23.3279 144.112 58.4505 179.043C93.573 213.975 137.853 218.651 177.502 179.218C217.151 139.784 212.484 95.7793 177.327 60.8126Z" fill="#FFB321"/>
</svg>
