<svg xmlns="http://www.w3.org/2000/svg" width="56" height="56" viewBox="0 0 56 56">
  <path d="M16.5 5 H35 L43 13 V48.5 A2.5 2.5 0 0 1 40.5 51 H16.5 A2.5 2.5 0 0 1 14 48.5 V7.5 A2.5 2.5 0 0 1 16.5 5 Z" fill="#d6604e" fill-opacity="0.10" stroke="#d6604e" stroke-opacity="0.32" stroke-width="1.3"></path>
  <path d="M35 5 V10.5 A2.5 2.5 0 0 0 37.5 13 H43 Z" fill="#0295f6" fill-opacity="0.85"></path>
  <rect x="18.5" y="23" width="20" height="19" rx="2.5" fill="#d6604e" fill-opacity="0.10" stroke="#d6604e" stroke-opacity="0.5" stroke-width="1.2"></rect>
  <path d="M18.5 28.5 V25 A2 2 0 0 1 20.5 23 H36.5 A2 2 0 0 1 38.5 25 V28.5 Z" fill="#d6604e" fill-opacity="0.8"></path>
  <rect x="22.5" y="20" width="2.4" height="5" rx="1.2" fill="#d6604e"></rect>
  <rect x="32.1" y="20" width="2.4" height="5" rx="1.2" fill="#d6604e"></rect>
  <circle cx="24" cy="33.5" r="1.4" fill="#d6604e"></circle>
  <circle cx="28.5" cy="33.5" r="1.4" fill="#d6604e"></circle>
  <circle cx="33" cy="33.5" r="1.4" fill="#d6604e" fill-opacity="0.4"></circle>
  <circle cx="24" cy="38.5" r="1.4" fill="#d6604e" fill-opacity="0.4"></circle>
  <circle cx="28.5" cy="38.5" r="1.4" fill="#d6604e" fill-opacity="0.4"></circle>
  <circle cx="33" cy="38.5" r="1.4" fill="#d6604e" fill-opacity="0.4"></circle>
</svg>