<svg xmlns="http://www.w3.org/2000/svg" width="56" height="56" viewBox="0 0 56 56">
  <path d="M16.5 5 H35 L43 13 V48.5 A2.5 2.5 0 0 1 40.5 51 H16.5 A2.5 2.5 0 0 1 14 48.5 V7.5 A2.5 2.5 0 0 1 16.5 5 Z" fill="#2f7fd1" fill-opacity="0.10" stroke="#2f7fd1" stroke-opacity="0.32" stroke-width="1.3"></path>
  <path d="M35 5 V10.5 A2.5 2.5 0 0 0 37.5 13 H43 Z" fill="#0295f6" fill-opacity="0.85"></path>
  <rect x="21" y="33" width="4.5" height="4.5" rx="0.6" fill="#2f7fd1"></rect>
  <rect x="26.2" y="33" width="4.5" height="4.5" rx="0.6" fill="#2f7fd1"></rect>
  <rect x="31.4" y="33" width="4.5" height="4.5" rx="0.6" fill="#2f7fd1"></rect>
  <rect x="26.2" y="27.8" width="4.5" height="4.5" rx="0.6" fill="#2f7fd1" fill-opacity="0.6"></rect>
  <path d="M18 40.5 H39" stroke="#2f7fd1" stroke-width="2" stroke-linecap="round"></path>
</svg>