<svg xmlns="http://www.w3.org/2000/svg" width="56" height="56" viewBox="0 0 56 56">
  <path d="M16.5 5 H35 L43 13 V48.5 A2.5 2.5 0 0 1 40.5 51 H16.5 A2.5 2.5 0 0 1 14 48.5 V7.5 A2.5 2.5 0 0 1 16.5 5 Z" fill="#0295f6" fill-opacity="0.10" stroke="#0295f6" stroke-opacity="0.32" stroke-width="1.3"></path><path d="M35 5 V10.5 A2.5 2.5 0 0 0 37.5 13 H43 Z" fill="#0295f6" fill-opacity="0.85"></path>
  <rect x="19.5" y="22" width="13" height="2.6" rx="1.3" fill="#0295f6"></rect>
  <rect x="19.5" y="29" width="18" height="2.6" rx="1.3" fill="#0295f6" fill-opacity="0.45"></rect>
  <rect x="19.5" y="35.5" width="18" height="2.6" rx="1.3" fill="#0295f6" fill-opacity="0.45"></rect>
  <rect x="19.5" y="42" width="11" height="2.6" rx="1.3" fill="#0295f6" fill-opacity="0.45"></rect>
</svg>