<svg xmlns="http://www.w3.org/2000/svg" width="56" height="56" viewBox="0 0 56 56">
  <path d="M16.5 5 H35 L43 13 V48.5 A2.5 2.5 0 0 1 40.5 51 H16.5 A2.5 2.5 0 0 1 14 48.5 V7.5 A2.5 2.5 0 0 1 16.5 5 Z" fill="#6a8f5f" fill-opacity="0.10" stroke="#6a8f5f" stroke-opacity="0.32" stroke-width="1.3"></path>
  <path d="M35 5 V10.5 A2.5 2.5 0 0 0 37.5 13 H43 Z" fill="#0295f6" fill-opacity="0.85"></path>
  <path d="M19 24.5 C23 22.5 25.5 22.5 28 24.5 V42 C25.5 40 23 40 19 42 Z" fill="#6a8f5f" fill-opacity="0.18" stroke="#6a8f5f" stroke-opacity="0.5" stroke-width="1.2"></path>
  <path d="M37 24.5 C33 22.5 30.5 22.5 28 24.5 V42 C30.5 40 33 40 37 42 Z" fill="#6a8f5f" fill-opacity="0.18" stroke="#6a8f5f" stroke-opacity="0.5" stroke-width="1.2"></path>
</svg>