<svg xmlns="http://www.w3.org/2000/svg" width="56" height="56" viewBox="0 0 56 56">
  <path d="M16.5 5 H35 L43 13 V48.5 A2.5 2.5 0 0 1 40.5 51 H16.5 A2.5 2.5 0 0 1 14 48.5 V7.5 A2.5 2.5 0 0 1 16.5 5 Z" fill="#6f6ad0" fill-opacity="0.10" stroke="#6f6ad0" stroke-opacity="0.32" stroke-width="1.3"></path>
  <path d="M35 5 V10.5 A2.5 2.5 0 0 0 37.5 13 H43 Z" fill="#0295f6" fill-opacity="0.85"></path>
  <rect x="21.5" y="25" width="14" height="14" rx="2" fill="#6f6ad0" fill-opacity="0.12" stroke="#6f6ad0" stroke-opacity="0.5" stroke-width="1.3"></rect>
  <rect x="25.5" y="29" width="6" height="6" rx="1" fill="#6f6ad0" fill-opacity="0.6"></rect>
  <line x1="25.5" y1="22.5" x2="25.5" y2="25" stroke="#6f6ad0" stroke-width="1.4" stroke-linecap="round"></line>
  <line x1="31.5" y1="22.5" x2="31.5" y2="25" stroke="#6f6ad0" stroke-width="1.4" stroke-linecap="round"></line>
  <line x1="25.5" y1="39" x2="25.5" y2="41.5" stroke="#6f6ad0" stroke-width="1.4" stroke-linecap="round"></line>
  <line x1="31.5" y1="39" x2="31.5" y2="41.5" stroke="#6f6ad0" stroke-width="1.4" stroke-linecap="round"></line>
  <line x1="19" y1="29" x2="21.5" y2="29" stroke="#6f6ad0" stroke-width="1.4" stroke-linecap="round"></line>
  <line x1="19" y1="35" x2="21.5" y2="35" stroke="#6f6ad0" stroke-width="1.4" stroke-linecap="round"></line>
  <line x1="35.5" y1="29" x2="38" y2="29" stroke="#6f6ad0" stroke-width="1.4" stroke-linecap="round"></line>
  <line x1="35.5" y1="35" x2="38" y2="35" stroke="#6f6ad0" stroke-width="1.4" stroke-linecap="round"></line>
</svg>