<svg xmlns="http://www.w3.org/2000/svg" width="56" height="56" viewBox="0 0 56 56">
  <path d="M7 19 A3 3 0 0 1 10 16 H22 L26 20 H46 A3 3 0 0 1 49 23 V43 A3 3 0 0 1 46 46 H10 A3 3 0 0 1 7 43 Z" fill="#0295f6" fill-opacity="0.12" stroke="#0295f6" stroke-opacity="0.40" stroke-width="1.3"></path>
  <path d="M7 26 H49 V43 A3 3 0 0 1 46 46 H10 A3 3 0 0 1 7 43 Z" fill="#0295f6" fill-opacity="0.14"></path>
  <circle cx="22" cy="35.5" r="1.8" fill="#0295f6" fill-opacity="0.7"></circle>
  <circle cx="28" cy="35.5" r="1.8" fill="#0295f6" fill-opacity="0.7"></circle>
  <circle cx="34" cy="35.5" r="1.8" fill="#0295f6" fill-opacity="0.3"></circle>
</svg>