<svg xmlns="http://www.w3.org/2000/svg" width="56" height="56" viewBox="0 0 56 56">
  <path d="M16.5 5 H35 L43 13 V48.5 A2.5 2.5 0 0 1 40.5 51 H16.5 A2.5 2.5 0 0 1 14 48.5 V7.5 A2.5 2.5 0 0 1 16.5 5 Z" fill="#1ba85b" fill-opacity="0.10" stroke="#1ba85b" stroke-opacity="0.32" stroke-width="1.3"></path><path d="M35 5 V10.5 A2.5 2.5 0 0 0 37.5 13 H43 Z" fill="#0295f6" fill-opacity="0.85"></path>
  <rect x="20" y="24" width="5" height="5" rx="1.2" fill="#1ba85b"></rect>
  <rect x="26.6" y="24" width="5" height="5" rx="1.2" fill="#1ba85b"></rect>
  <rect x="33.2" y="24" width="5" height="5" rx="1.2" fill="#1ba85b"></rect>
  <rect x="20" y="30.6" width="5" height="5" rx="1.2" fill="#1ba85b" fill-opacity="0.20"></rect>
  <rect x="26.6" y="30.6" width="5" height="5" rx="1.2" fill="#1ba85b" fill-opacity="0.20"></rect>
  <rect x="33.2" y="30.6" width="5" height="5" rx="1.2" fill="#1ba85b" fill-opacity="0.20"></rect>
  <rect x="20" y="37.2" width="5" height="5" rx="1.2" fill="#1ba85b" fill-opacity="0.20"></rect>
  <rect x="26.6" y="37.2" width="5" height="5" rx="1.2" fill="#1ba85b" fill-opacity="0.20"></rect>
  <rect x="33.2" y="37.2" width="5" height="5" rx="1.2" fill="#1ba85b" fill-opacity="0.20"></rect>
</svg>