<svg xmlns="http://www.w3.org/2000/svg" width="56" height="56" viewBox="0 0 56 56">
  <path d="M16.5 5 H35 L43 13 V48.5 A2.5 2.5 0 0 1 40.5 51 H16.5 A2.5 2.5 0 0 1 14 48.5 V7.5 A2.5 2.5 0 0 1 16.5 5 Z" fill="#4FC9B8" fill-opacity="0.10" stroke="#4FC9B8" stroke-opacity="0.32" stroke-width="1.3"></path>
  <path d="M35 5 V10.5 A2.5 2.5 0 0 0 37.5 13 H43 Z" fill="#4FC9B8" fill-opacity="0.95"></path>
  <path d="M28 21 L38 26.5 V37.5 L28 43 L18 37.5 V26.5 Z" fill="#4FC9B8" fill-opacity="0.10" stroke="#4FC9B8" stroke-opacity="0.5" stroke-width="1.2"></path>
  <path d="M28 21 L38 26.5 L28 32 L18 26.5 Z" fill="#4FC9B8" fill-opacity="0.32"></path>
  <path d="M28 32 V43" stroke="#4FC9B8" stroke-opacity="0.4" stroke-width="1.2"></path>
  <path d="M28 32 L18 26.5 M28 32 L38 26.5" stroke="#4FC9B8" stroke-opacity="0.3" stroke-width="1"></path>
</svg>