<svg xmlns="http://www.w3.org/2000/svg" width="56" height="56" viewBox="0 0 56 56">
  <path d="M16.5 5 H35 L43 13 V48.5 A2.5 2.5 0 0 1 40.5 51 H16.5 A2.5 2.5 0 0 1 14 48.5 V7.5 A2.5 2.5 0 0 1 16.5 5 Z" fill="#F9A85C" fill-opacity="0.10" stroke="#F9A85C" stroke-opacity="0.32" stroke-width="1.3"></path>
  <path d="M35 5 V10.5 A2.5 2.5 0 0 0 37.5 13 H43 Z" fill="#F9A85C" fill-opacity="0.95"></path>
  <rect x="26.5" y="20" width="4" height="4" fill="#F9A85C"></rect>
  <rect x="26.5" y="25" width="4" height="4" fill="#F9A85C" fill-opacity="0.35"></rect>
  <rect x="26.5" y="30" width="4" height="4" fill="#F9A85C"></rect>
  <rect x="25" y="35.5" width="7" height="7.5" rx="1.6" fill="#F9A85C"></rect>
  <circle cx="28.5" cy="39.2" r="1.2" fill="#fff"></circle>
</svg>