<svg xmlns="http://www.w3.org/2000/svg" width="56" height="56" viewBox="0 0 56 56">
  <path d="M16.5 5 H35 L43 13 V48.5 A2.5 2.5 0 0 1 40.5 51 H16.5 A2.5 2.5 0 0 1 14 48.5 V7.5 A2.5 2.5 0 0 1 16.5 5 Z" fill="#4a8a76" fill-opacity="0.10" stroke="#4a8a76" stroke-opacity="0.32" stroke-width="1.3"></path>
  <path d="M35 5 V10.5 A2.5 2.5 0 0 0 37.5 13 H43 Z" fill="#0295f6" fill-opacity="0.85"></path>
  <ellipse cx="28.5" cy="24.5" rx="9" ry="3.2" fill="#4a8a76" fill-opacity="0.30" stroke="#4a8a76" stroke-opacity="0.5" stroke-width="1.2"></ellipse>
  <path d="M19.5 24.5 V40 A9 3.2 0 0 0 37.5 40 V24.5" fill="#4a8a76" fill-opacity="0.10" stroke="#4a8a76" stroke-opacity="0.5" stroke-width="1.2"></path>
  <path d="M19.5 32.2 A9 3.2 0 0 0 37.5 32.2" fill="none" stroke="#4a8a76" stroke-opacity="0.4" stroke-width="1.1"></path>
</svg>