<svg xmlns="http://www.w3.org/2000/svg" width="56" height="56" viewBox="0 0 56 56">
  <path d="M16.5 5 H35 L43 13 V48.5 A2.5 2.5 0 0 1 40.5 51 H16.5 A2.5 2.5 0 0 1 14 48.5 V7.5 A2.5 2.5 0 0 1 16.5 5 Z" fill="#d9663f" fill-opacity="0.10" stroke="#d9663f" stroke-opacity="0.32" stroke-width="1.3"></path>
  <path d="M35 5 V10.5 A2.5 2.5 0 0 0 37.5 13 H43 Z" fill="#d9663f" fill-opacity="0.95"></path>
  <line x1="22" y1="27" x2="22" y2="38" stroke="#d9663f" stroke-width="1.6"></line>
  <path d="M22 28.5 Q22 33 31.5 33" fill="none" stroke="#d9663f" stroke-opacity="0.55" stroke-width="1.6"></path>
  <circle cx="22" cy="25" r="3" fill="#d9663f"></circle>
  <circle cx="22" cy="39.5" r="3" fill="#d9663f"></circle>
  <circle cx="34" cy="33" r="3" fill="#d9663f" fill-opacity="0.6"></circle>
</svg>