<svg xmlns="http://www.w3.org/2000/svg" width="56" height="56" viewBox="0 0 56 56">
  <path d="M16.5 5 H35 L43 13 V48.5 A2.5 2.5 0 0 1 40.5 51 H16.5 A2.5 2.5 0 0 1 14 48.5 V7.5 A2.5 2.5 0 0 1 16.5 5 Z" fill="#A585E0" fill-opacity="0.10" stroke="#A585E0" stroke-opacity="0.32" stroke-width="1.3"></path>
  <path d="M35 5 V10.5 A2.5 2.5 0 0 0 37.5 13 H43 Z" fill="#A585E0" fill-opacity="0.95"></path>
  <rect x="20.5" y="31" width="16" height="12" rx="2.5" fill="#A585E0" fill-opacity="0.14" stroke="#A585E0" stroke-opacity="0.55" stroke-width="1.3"></rect>
  <path d="M23.5 31 V27.5 A5 5 0 0 1 33.5 27.5 V31" fill="none" stroke="#A585E0" stroke-opacity="0.55" stroke-width="1.6"></path>
  <circle cx="28.5" cy="36" r="1.8" fill="#A585E0"></circle>
  <rect x="27.7" y="37" width="1.6" height="4" rx="0.8" fill="#A585E0"></rect>
</svg>