<svg xmlns="http://www.w3.org/2000/svg" width="56" height="56" viewBox="0 0 56 56">
  <path d="M16.5 5 H35 L43 13 V48.5 A2.5 2.5 0 0 1 40.5 51 H16.5 A2.5 2.5 0 0 1 14 48.5 V7.5 A2.5 2.5 0 0 1 16.5 5 Z" fill="#6E9BEE" fill-opacity="0.10" stroke="#6E9BEE" stroke-opacity="0.32" stroke-width="1.3"></path>
  <path d="M35 5 V10.5 A2.5 2.5 0 0 0 37.5 13 H43 Z" fill="#6E9BEE" fill-opacity="0.95"></path>
  <circle cx="20.5" cy="24" r="1.4" fill="#6E9BEE"></circle>
  <rect x="24" y="22.9" width="13" height="2.2" rx="1.1" fill="#6E9BEE" fill-opacity="0.45"></rect>
  <circle cx="20.5" cy="30" r="1.4" fill="#6E9BEE"></circle>
  <rect x="24" y="28.9" width="13" height="2.2" rx="1.1" fill="#6E9BEE" fill-opacity="0.45"></rect>
  <circle cx="20.5" cy="36" r="1.4" fill="#6E9BEE"></circle>
  <rect x="24" y="34.9" width="10" height="2.2" rx="1.1" fill="#6E9BEE" fill-opacity="0.45"></rect>
  <circle cx="20.5" cy="42" r="1.4" fill="#6E9BEE"></circle>
  <rect x="24" y="40.9" width="13" height="2.2" rx="1.1" fill="#6E9BEE" fill-opacity="0.45"></rect>
</svg>