<svg xmlns="http://www.w3.org/2000/svg" width="56" height="56" viewBox="0 0 56 56">
  <path d="M16.5 5 H35 L43 13 V48.5 A2.5 2.5 0 0 1 40.5 51 H16.5 A2.5 2.5 0 0 1 14 48.5 V7.5 A2.5 2.5 0 0 1 16.5 5 Z" fill="#c4683f" fill-opacity="0.10" stroke="#c4683f" stroke-opacity="0.32" stroke-width="1.3"></path>
  <path d="M35 5 V10.5 A2.5 2.5 0 0 0 37.5 13 H43 Z" fill="#c4683f" fill-opacity="0.95"></path>
  <path d="M28 20.5 L38 25.5 V36.5 L28 41.5 L18 36.5 V25.5 Z" fill="#c4683f" fill-opacity="0.10" stroke="#c4683f" stroke-opacity="0.5" stroke-width="1.3"></path>
  <path d="M18 25.5 L28 30.5 L38 25.5" fill="none" stroke="#c4683f" stroke-opacity="0.45" stroke-width="1.2"></path>
  <path d="M28 30.5 V41.5" stroke="#c4683f" stroke-opacity="0.45" stroke-width="1.2"></path>
  <path d="M23 23 L33 28" fill="none" stroke="#c4683f" stroke-opacity="0.5" stroke-width="1.3"></path>
</svg>