<svg xmlns="http://www.w3.org/2000/svg" width="56" height="56" viewBox="0 0 56 56">
  <path d="M16.5 5 H35 L43 13 V48.5 A2.5 2.5 0 0 1 40.5 51 H16.5 A2.5 2.5 0 0 1 14 48.5 V7.5 A2.5 2.5 0 0 1 16.5 5 Z" fill="#ec9a2c" fill-opacity="0.10" stroke="#ec9a2c" stroke-opacity="0.32" stroke-width="1.3"></path><path d="M35 5 V10.5 A2.5 2.5 0 0 0 37.5 13 H43 Z" fill="#0295f6" fill-opacity="0.85"></path>
  <rect x="18.5" y="22" width="20" height="19" rx="2" fill="#ec9a2c" fill-opacity="0.10" stroke="#ec9a2c" stroke-opacity="0.5" stroke-width="1.2"></rect>
  <rect x="22" y="32" width="3" height="5" rx="1" fill="#ec9a2c"></rect>
  <rect x="27" y="29" width="3" height="8" rx="1" fill="#ec9a2c"></rect>
  <rect x="32" y="26" width="3" height="11" rx="1" fill="#ec9a2c"></rect>
</svg>