<svg xmlns="http://www.w3.org/2000/svg" width="56" height="56" viewBox="0 0 56 56">
  <path d="M16.5 5 H35 L43 13 V48.5 A2.5 2.5 0 0 1 40.5 51 H16.5 A2.5 2.5 0 0 1 14 48.5 V7.5 A2.5 2.5 0 0 1 16.5 5 Z" fill="#A585E0" fill-opacity="0.10" stroke="#A585E0" stroke-opacity="0.32" stroke-width="1.3"></path>
  <path d="M35 5 V10.5 A2.5 2.5 0 0 0 37.5 13 H43 Z" fill="#A585E0" fill-opacity="0.95"></path>
  <line x1="20" y1="26" x2="37" y2="26" stroke="#A585E0" stroke-opacity="0.4" stroke-width="2" stroke-linecap="round"></line>
  <circle cx="25" cy="26" r="2.6" fill="#A585E0"></circle>
  <line x1="20" y1="32.5" x2="37" y2="32.5" stroke="#A585E0" stroke-opacity="0.4" stroke-width="2" stroke-linecap="round"></line>
  <circle cx="32" cy="32.5" r="2.6" fill="#A585E0"></circle>
  <line x1="20" y1="39" x2="37" y2="39" stroke="#A585E0" stroke-opacity="0.4" stroke-width="2" stroke-linecap="round"></line>
  <circle cx="27.5" cy="39" r="2.6" fill="#A585E0"></circle>
</svg>