<svg xmlns="http://www.w3.org/2000/svg" width="56" height="56" viewBox="0 0 56 56">
  <path d="M16.5 5 H35 L43 13 V48.5 A2.5 2.5 0 0 1 40.5 51 H16.5 A2.5 2.5 0 0 1 14 48.5 V7.5 A2.5 2.5 0 0 1 16.5 5 Z" fill="#A585E0" fill-opacity="0.10" stroke="#A585E0" stroke-opacity="0.32" stroke-width="1.3"></path>
  <path d="M35 5 V10.5 A2.5 2.5 0 0 0 37.5 13 H43 Z" fill="#A585E0" fill-opacity="0.95"></path>
  <circle cx="22.5" cy="27" r="1.8" fill="#A585E0"></circle>
  <circle cx="28.5" cy="27" r="1.8" fill="#A585E0"></circle>
  <circle cx="34.5" cy="27" r="1.8" fill="#A585E0"></circle>
  <circle cx="22.5" cy="33" r="1.8" fill="#A585E0"></circle>
  <circle cx="28.5" cy="33" r="1.8" fill="#A585E0"></circle>
  <circle cx="34.5" cy="33" r="1.8" fill="#A585E0" fill-opacity="0.2"></circle>
  <circle cx="22.5" cy="39" r="1.8" fill="#A585E0"></circle>
  <circle cx="28.5" cy="39" r="1.8" fill="#A585E0" fill-opacity="0.2"></circle>
  <circle cx="34.5" cy="39" r="1.8" fill="#A585E0" fill-opacity="0.2"></circle>
</svg>