<svg xmlns="http://www.w3.org/2000/svg" width="56" height="56" viewBox="0 0 56 56">
  <path d="M16.5 5 H35 L43 13 V48.5 A2.5 2.5 0 0 1 40.5 51 H16.5 A2.5 2.5 0 0 1 14 48.5 V7.5 A2.5 2.5 0 0 1 16.5 5 Z" fill="#d99a3f" fill-opacity="0.10" stroke="#d99a3f" stroke-opacity="0.32" stroke-width="1.3"></path>
  <path d="M35 5 V10.5 A2.5 2.5 0 0 0 37.5 13 H43 Z" fill="#0295f6" fill-opacity="0.85"></path>
  <path d="M20 41 C24 27 32 27 36 41" fill="none" stroke="#d99a3f" stroke-opacity="0.55" stroke-width="1.6"></path>
  <circle cx="28" cy="24.5" r="2" fill="#d99a3f" fill-opacity="0.5"></circle>
  <line x1="28" y1="26.5" x2="28" y2="30.5" stroke="#d99a3f" stroke-opacity="0.35" stroke-width="1.2"></line>
  <rect x="17.8" y="38.8" width="4.4" height="4.4" rx="1" fill="#d99a3f"></rect>
  <rect x="33.8" y="38.8" width="4.4" height="4.4" rx="1" fill="#d99a3f"></rect>
</svg>